PathFileType	4	(x/y/z)	S06_M20_T24
DataRate	CameraRate	NumFrames	NumMarkers	Units	OrigDataRate	OrigDataStartFrame	OrigNumFrames
240	240	9	51	mm	240	421	481
Frame#	Time	Sternum			R.Acromium			L.Acromium			Top.Head			R.ASIS			L.ASIS			R.PSIS			L.PSIS			R.Great.Tro			L.Great.Tro			R.Iliac.Crest			L.Iliac.Crest			V.Sacral			R.Thigh.Upper.Post			R.Thigh.Lower.Ant			R.Thigh.Lower.Post			R.Thigh.Upper.Ant			R.Knee.Lat			R.Knee.Med			R.Shank.Upper.Post			R.Shank.Lower.Ant			R.Shank.Lower.Post			R.Shank.Upper.Ant			R.Ankle.Lat			R.Ankle.Med			R.Heel.Upper			R.Heel.Med			R.Heel.Lat			R.Toe.Lat			R.Toe.Med			R.Toe.Tip			L.Thigh.Upper.Post			L.Thigh.Lower.Ant			L.Thigh.Lower.Post			L.Thigh.Upper.Ant			L.Knee.Lat			L.Knee.Med			L.Shank.Upper.Post			L.Shank.Lower.Ant			L.Shank.Lower.Post			L.Shank.Upper.Ant			L.Ankle.Lat			L.Ankle.Med			L.Heel.Upper			L.Heel.Med			L.Heel.Lat			L.Toe.Lat			L.Toe.Med			L.Toe.Tip			Cervical.Spine			Back			
		X1	Y1	Z1	X2	Y2	Z2	X3	Y3	Z3	X4	Y4	Z4	X5	Y5	Z5	X6	Y6	Z6	X7	Y7	Z7	X8	Y8	Z8	X9	Y9	Z9	X10	Y10	Z10	X11	Y11	Z11	X12	Y12	Z12	X13	Y13	Z13	X14	Y14	Z14	X15	Y15	Z15	X16	Y16	Z16	X17	Y17	Z17	X18	Y18	Z18	X19	Y19	Z19	X20	Y20	Z20	X21	Y21	Z21	X22	Y22	Z22	X23	Y23	Z23	X24	Y24	Z24	X25	Y25	Z25	X26	Y26	Z26	X27	Y27	Z27	X28	Y28	Z28	X29	Y29	Z29	X30	Y30	Z30	X31	Y31	Z31	X32	Y32	Z32	X33	Y33	Z33	X34	Y34	Z34	X35	Y35	Z35	X36	Y36	Z36	X37	Y37	Z37	X38	Y38	Z38	X39	Y39	Z39	X40	Y40	Z40	X41	Y41	Z41	X42	Y42	Z42	X43	Y43	Z43	X44	Y44	Z44	X45	Y45	Z45	X46	Y46	Z46	X47	Y47	Z47	X48	Y48	Z48	X49	Y49	Z49	X50	Y50	Z50	X51	Y51	Z51	

421	1.75	677.48	1289	311.55	545.69	1494.4	477.42	539.84	1491.5	126.76	600.13	1808.4	299.54	637.16	1053.1	431.3	643.22	1049.2	178.91	439.45	1067.8	336.98	441.09	1072.6	255.89	586.93	979.09	482.28	543.55	977.46	123.95	550.08	1123.4	462.52	575.77	1122.6	142.42	426.9	1036	298.55	688.11	752.17	482.8	770.57	700.13	448.71	712.55	666.9	466.5	746.63	787.72	458.1	772	575.09	459	776.06	572.93	330.49	722.08	352.1	468.62	780.8	286.2	453.77	716.76	275.2	458.04	786.08	362.13	463.85	743.4	141.25	441.12	767.58	144.75	358.73	687.13	92.205	387.29	701.01	60.91	359.3	692.28	62.666	423.73	862.42	62.886	485.01	900.69	70.353	372.03	958.86	91.838	423.6	555.23	719.26	160.21	587.59	632.86	222.44	519.99	637.63	179.94	617.32	720.14	198.05	481.41	544.87	196.84	498.54	553.22	318.37	403.75	321.71	217.48	460.82	253.82	227.39	390.34	252.19	240.04	469.93	322.82	211.29	423.32	108.48	252.48	428.73	132.54	337.83	339.87	75.866	291.92	341.59	47.894	323.38	347.67	51.187	261.96	529.34	45.124	238.68	539.87	41.375	360.05	616.35	51.894	311.26	491.53	1545	302.62	436.29	1271	300.3
422	1.7542	682.59	1288.2	311.63	550.9	1493.7	477.62	544.89	1490.8	126.95	605.24	1807.8	299.81	642.28	1052.2	431.35	648.1	1048.5	178.94	444.5	1067.1	337.18	446.1	1072	256.11	591.94	978.21	482.39	548.14	976.91	123.99	555.35	1122.6	462.65	580.68	1121.9	142.52	431.91	1035.3	298.75	692.73	751.16	482.81	775.13	699.19	448.67	717.08	665.92	466.36	751.17	786.8	458.17	777.08	574.35	458.78	781.2	572.33	330.27	731.72	350.22	467.88	792.03	285.74	453.23	728.22	273.23	457.06	795.59	361.69	463.38	758.14	139.81	440.13	782.39	144.26	357.8	703.16	89.512	386.23	717.86	58.759	358.03	709.11	59.91	422.46	879.23	64.14	483.7	917.2	73.358	370.79	974.8	95.978	422.48	558.17	718.85	160.11	590.25	632.21	222.2	522.49	637.4	179.85	620.3	719.37	197.87	483.36	544.81	196.8	500.7	553.05	318.33	404.7	321.96	217.56	461.5	253.85	227.36	391.05	252.52	240.12	470.88	322.83	211.24	423.46	108.61	252.56	429.06	132.69	337.88	339.93	75.942	292	341.63	47.952	323.45	347.7	51.286	262.03	529.36	45.107	238.68	539.93	41.323	360.06	616.44	51.73	311.22	496.68	1544.3	302.86	441.38	1270.3	300.55
423	1.7583	687.72	1287.4	311.72	556.12	1492.9	477.83	549.97	1490	127.15	610.37	1807.1	300.07	647.41	1051.3	431.4	653.02	1047.7	178.97	449.56	1066.4	337.38	451.12	1071.4	256.32	596.95	977.31	482.51	552.77	976.36	124.02	560.61	1121.8	462.79	585.61	1121.2	142.62	436.93	1034.7	298.94	697.31	750.11	482.84	779.62	698.17	448.66	721.54	664.88	466.24	755.69	785.82	458.28	782.03	573.53	458.56	786.27	571.68	330.03	741.2	348.37	467.07	803.08	285.34	452.66	739.55	271.33	456.01	804.93	361.28	462.89	772.76	138.5	439.09	797.06	143.93	356.83	719.1	87.002	385.1	734.61	56.824	356.68	725.86	57.345	421.11	895.85	65.561	482.34	933.48	76.578	369.52	990.46	100.3	421.34	561.15	718.44	160.02	592.95	631.57	221.96	525.05	637.17	179.76	623.33	718.6	197.67	485.36	544.76	196.78	502.94	552.88	318.31	405.69	322.23	217.65	462.21	253.89	227.34	391.8	252.87	240.21	471.87	322.84	211.21	423.61	108.75	252.65	429.4	132.85	337.94	339.99	76.021	292.09	341.68	48.016	323.52	347.73	51.387	262.11	529.38	45.089	238.68	539.99	41.271	360.06	616.52	51.555	311.19	501.85	1543.6	303.09	446.49	1269.6	300.79
424	1.7625	692.86	1286.6	311.82	561.35	1492.1	478.04	555.06	1489.3	127.35	615.52	1806.4	300.34	652.56	1050.4	431.46	658	1046.9	179.01	454.65	1065.8	337.57	456.16	1070.7	256.52	601.96	976.38	482.63	557.42	975.8	124.04	565.86	1121	462.93	590.56	1120.5	142.71	441.98	1034	299.12	701.84	749	482.9	784.06	697.08	448.67	725.93	663.79	466.12	760.18	784.77	458.44	786.86	572.65	458.32	791.28	570.98	329.79	750.54	346.56	466.21	813.96	284.99	452.07	750.72	269.51	454.89	814.09	360.88	462.39	787.22	137.35	438.01	811.58	143.76	355.82	734.93	84.678	383.89	751.24	55.106	355.26	742.49	54.975	419.67	912.26	67.143	480.94	949.51	80.005	368.24	1005.8	104.78	420.2	564.17	718.02	159.93	595.69	630.93	221.73	527.65	636.93	179.67	626.42	717.83	197.47	487.42	544.7	196.77	505.26	552.71	318.29	406.73	322.52	217.75	462.96	253.93	227.32	392.58	253.24	240.31	472.9	322.86	211.18	423.78	108.9	252.74	429.76	133.03	338	340.06	76.107	292.19	341.73	48.085	323.6	347.77	51.494	262.19	529.4	45.07	238.69	540.06	41.221	360.06	616.61	51.368	311.16	507.03	1542.9	303.33	451.62	1268.9	301.03
425	1.7667	698.02	1285.7	311.93	566.58	1491.3	478.25	560.17	1488.6	127.55	620.68	1805.6	300.6	657.71	1049.4	431.52	663.03	1046.1	179.05	459.75	1065.1	337.75	461.22	1070.1	256.72	606.98	975.44	482.76	562.11	975.23	124.07	571.1	1120.2	463.06	595.54	1119.8	142.81	447.04	1033.3	299.3	706.34	747.85	482.97	788.45	695.93	448.7	730.25	662.66	466.01	764.66	783.66	458.63	791.57	571.69	458.07	796.22	570.24	329.52	759.73	344.78	465.28	824.66	284.7	451.45	761.75	267.77	453.71	823.07	360.51	461.86	801.53	136.34	436.88	825.93	143.75	354.78	750.64	82.541	382.63	767.74	53.606	353.78	759	52.802	418.17	928.43	68.88	479.51	965.27	83.625	366.95	1020.9	109.41	419.08	567.25	717.61	159.83	598.47	630.29	221.49	530.3	636.7	179.59	629.55	717.06	197.25	489.56	544.65	196.77	507.66	552.55	318.28	407.83	322.82	217.87	463.75	253.99	227.32	393.4	253.63	240.42	473.98	322.88	211.17	423.96	109.07	252.84	430.13	133.22	338.07	340.13	76.201	292.3	341.78	48.162	323.68	347.81	51.609	262.29	529.43	45.052	238.7	540.13	41.17	360.05	616.71	51.168	311.13	512.23	1542.1	303.57	456.75	1268.1	301.27
426	1.7708	703.19	1284.9	312.04	571.83	1490.5	478.47	565.3	1487.8	127.76	625.86	1804.9	300.88	662.88	1048.5	431.58	668.09	1045.3	179.09	464.87	1064.3	337.92	466.3	1069.4	256.91	612	974.48	482.9	566.81	974.65	124.08	576.32	1119.4	463.2	600.53	1119	142.91	452.13	1032.7	299.47	710.79	746.66	483.04	792.8	694.71	448.74	734.52	661.48	465.89	769.12	782.5	458.86	796.16	570.67	457.79	801.12	569.46	329.23	768.78	343.04	464.29	835.17	284.47	450.8	772.62	266.11	452.47	831.87	360.15	461.31	815.67	135.48	435.71	840.11	143.89	353.71	766.21	80.594	381.3	784.08	52.323	352.23	775.36	50.828	416.6	944.35	70.766	478.08	980.76	87.425	365.67	1035.7	114.18	418	570.38	717.2	159.75	601.3	629.65	221.26	533.01	636.46	179.53	632.75	716.3	197.03	491.76	544.59	196.79	510.15	552.38	318.28	408.97	323.14	217.99	464.58	254.05	227.33	394.26	254.03	240.55	475.12	322.9	211.17	424.16	109.25	252.94	430.53	133.42	338.15	340.19	76.307	292.41	341.84	48.25	323.78	347.84	51.734	262.39	529.45	45.033	238.72	540.21	41.119	360.05	616.81	50.957	311.11	517.44	1541.4	303.8	461.9	1267.4	301.51
427	1.775	708.37	1284.1	312.15	577.08	1489.6	478.7	570.45	1487.1	127.97	631.05	1804.2	301.15	668.07	1047.6	431.65	673.2	1044.4	179.14	470	1063.6	338.09	471.4	1068.7	257.09	617.03	973.51	483.05	571.55	974.06	124.11	581.52	1118.5	463.34	605.55	1118.3	143.01	457.24	1032	299.63	715.19	745.42	483.12	797.1	693.43	448.8	738.72	660.26	465.76	773.56	781.28	459.11	800.64	569.58	457.49	805.97	568.65	328.92	777.7	341.34	463.24	845.51	284.29	450.12	783.33	264.54	451.17	840.49	359.82	460.74	829.62	134.76	434.51	854.1	144.17	352.61	781.63	78.838	379.91	800.26	51.255	350.62	791.55	49.054	414.96	960	72.793	476.64	995.95	91.387	364.41	1050.2	119.07	416.96	573.56	716.79	159.66	604.18	629.02	221.03	535.78	636.23	179.47	636	715.54	196.81	494.05	544.54	196.83	512.73	552.22	318.3	410.17	323.47	218.14	465.45	254.11	227.36	395.17	254.45	240.69	476.3	322.93	211.19	424.38	109.45	253.06	430.96	133.63	338.24	340.26	76.427	292.54	341.9	48.35	323.89	347.89	51.871	262.5	529.48	45.016	238.75	540.29	41.068	360.05	616.92	50.732	311.08	522.66	1540.7	304.04	467.06	1266.6	301.74
428	1.7792	713.58	1283.3	312.27	582.34	1488.8	478.92	575.61	1486.3	128.18	636.26	1803.5	301.43	673.27	1046.6	431.73	678.33	1043.6	179.19	475.15	1062.9	338.26	476.52	1068	257.28	622.08	972.53	483.21	576.31	973.47	124.13	586.71	1117.7	463.48	610.58	1117.5	143.11	462.36	1031.2	299.8	719.56	744.15	483.2	801.37	692.1	448.85	742.88	659	465.61	778	780	459.4	805.01	568.44	457.16	810.76	567.82	328.57	786.47	339.69	462.14	855.66	284.15	449.41	793.89	263.04	449.84	848.93	359.51	460.14	843.38	134.19	433.29	867.89	144.6	351.49	796.88	77.272	378.47	816.25	50.398	348.97	807.55	47.481	413.27	975.36	74.955	475.21	1010.8	95.494	363.18	1064.3	124.05	415.98	576.79	716.39	159.59	607.12	628.39	220.81	538.62	635.99	179.43	639.3	714.78	196.58	496.41	544.49	196.9	515.41	552.05	318.32	411.44	323.82	218.3	466.37	254.19	227.4	396.12	254.89	240.85	477.55	322.96	211.23	424.61	109.67	253.18	431.4	133.86	338.34	340.34	76.566	292.67	341.97	48.466	324.01	347.93	52.026	262.62	529.51	45	238.78	540.37	41.015	360.05	617.03	50.496	311.06	527.89	1539.9	304.28	472.23	1265.9	301.98
429	1.7833	718.79	1282.4	312.4	587.61	1488	479.15	580.8	1485.6	128.39	641.48	1802.7	301.71	678.48	1045.7	431.81	683.49	1042.8	179.25	480.32	1062.1	338.43	481.66	1067.3	257.46	627.13	971.55	483.37	581.1	972.87	124.16	591.89	1116.9	463.63	615.64	1116.8	143.22	467.51	1030.5	299.96	723.89	742.85	483.26	805.61	690.72	448.91	746.98	657.72	465.43	782.43	778.67	459.7	809.29	567.25	456.79	815.52	566.96	328.19	795.12	338.08	460.99	865.63	284.07	448.68	804.29	261.63	448.46	857.22	359.22	459.52	856.94	133.76	432.05	881.47	145.15	350.36	811.95	75.894	376.99	832.04	49.746	347.28	823.35	46.108	411.54	990.42	77.244	473.81	1025.4	99.724	361.99	1078.1	129.11	415.06	580.09	715.98	159.52	610.13	627.77	220.6	541.52	635.76	179.41	642.67	714.03	196.34	498.85	544.44	196.98	518.18	551.88	318.37	412.76	324.19	218.47	467.33	254.27	227.45	397.12	255.35	241.03	478.85	322.99	211.29	424.86	109.9	253.31	431.87	134.11	338.45	340.41	76.727	292.82	342.05	48.602	324.14	347.98	52.201	262.76	529.54	44.986	238.81	540.46	40.962	360.05	617.15	50.248	311.04	533.14	1539.2	304.52	477.42	1265.1	302.21
